{
    "asset" : {
        "generator" : "Khronos glTF Blender I/O v1.5.17",
        "version" : "2.0"
    },
    "scene" : 0,
    "scenes" : [
        {
            "name" : "Scene",
            "nodes" : [
                0
            ]
        }
    ],
    "nodes" : [
        {
            "mesh" : 0,
            "name" : "Tree_particle",
            "translation" : [
                0,
                0,
                0
            ]
        }
    ],
    "materials" : [
        {
            "doubleSided" : true,
            "name" : "Tree",
            "normalTexture" : {
                "index" : 0
            },
            "pbrMetallicRoughness" : {
                "baseColorTexture" : {
                    "index" : 1
                },
                "metallicFactor" : 0
            }
        },
        {
            "alphaMode" : "BLEND",
            "doubleSided" : true,
            "name" : "Tree Branch",
            "pbrMetallicRoughness" : {
                "baseColorTexture" : {
                    "index" : 2
                },
                "metallicFactor" : 0,
                "roughnessFactor" : 0.5
            }
        }
    ],
    "meshes" : [
        {
            "name" : "Cube.001",
            "primitives" : [
                {
                    "attributes" : {
                        "POSITION" : 0,
                        "NORMAL" : 1,
                        "TEXCOORD_0" : 2
                    },
                    "indices" : 3,
                    "material" : 0
                },
                {
                    "attributes" : {
                        "POSITION" : 4,
                        "NORMAL" : 5,
                        "TEXCOORD_0" : 6
                    },
                    "indices" : 7,
                    "material" : 1
                }
            ]
        }
    ],
    "textures" : [
        {
            "sampler" : 0,
            "source" : 0
        },
        {
            "sampler" : 0,
            "source" : 1
        },
        {
            "sampler" : 1,
            "source" : 2
        }
    ],
    "images" : [
        {
            "mimeType" : "image/png",
            "name" : "Maple_Bark_2_DISP",
            "uri" : "Maple_Bark_2_DISP.png"
        },
        {
            "mimeType" : "image/png",
            "name" : "Maple_Bark_2_COLOR",
            "uri" : "Maple_Bark_2_COLOR.png"
        },
        {
            "mimeType" : "image/png",
            "name" : "Tree Branch",
            "uri" : "Tree%20Branch.png"
        }
    ],
    "accessors" : [
        {
            "bufferView" : 0,
            "componentType" : 5126,
            "count" : 2264,
            "max" : [
                6.206352233886719,
                5.206157207489014,
                0.0004062652587890625
            ],
            "min" : [
                -5.415920257568359,
                -5.683204174041748,
                -15.406744003295898
            ],
            "type" : "VEC3"
        },
        {
            "bufferView" : 1,
            "componentType" : 5126,
            "count" : 2264,
            "type" : "VEC3"
        },
        {
            "bufferView" : 2,
            "componentType" : 5126,
            "count" : 2264,
            "type" : "VEC2"
        },
        {
            "bufferView" : 3,
            "componentType" : 5123,
            "count" : 3396,
            "type" : "SCALAR"
        },
        {
            "bufferView" : 4,
            "componentType" : 5126,
            "count" : 7500,
            "max" : [
                8.164246559143066,
                7.044667720794678,
                -4.013312339782715
            ],
            "min" : [
                -6.6927809715271,
                -6.914394378662109,
                -16.809844970703125
            ],
            "type" : "VEC3"
        },
        {
            "bufferView" : 5,
            "componentType" : 5126,
            "count" : 7500,
            "type" : "VEC3"
        },
        {
            "bufferView" : 6,
            "componentType" : 5126,
            "count" : 7500,
            "type" : "VEC2"
        },
        {
            "bufferView" : 7,
            "componentType" : 5123,
            "count" : 13500,
            "type" : "SCALAR"
        }
    ],
    "bufferViews" : [
        {
            "buffer" : 0,
            "byteLength" : 27168,
            "byteOffset" : 0
        },
        {
            "buffer" : 0,
            "byteLength" : 27168,
            "byteOffset" : 27168
        },
        {
            "buffer" : 0,
            "byteLength" : 18112,
            "byteOffset" : 54336
        },
        {
            "buffer" : 0,
            "byteLength" : 6792,
            "byteOffset" : 72448
        },
        {
            "buffer" : 0,
            "byteLength" : 90000,
            "byteOffset" : 79240
        },
        {
            "buffer" : 0,
            "byteLength" : 90000,
            "byteOffset" : 169240
        },
        {
            "buffer" : 0,
            "byteLength" : 60000,
            "byteOffset" : 259240
        },
        {
            "buffer" : 0,
            "byteLength" : 27000,
            "byteOffset" : 319240
        }
    ],
    "samplers" : [
        {
            "magFilter" : 9729,
            "minFilter" : 9987
        },
        {
            "magFilter" : 9729,
            "minFilter" : 9987,
            "wrapS" : 33071,
            "wrapT" : 33071
        }
    ],
    "buffers" : [
        {
            "byteLength" : 346240,
            "uri" : "tree.bin"
        }
    ]
}
